<?xml version="1.0" encoding="UTF-8" standalone="no"?>
<svg
   xmlns:dc="http://purl.org/dc/elements/1.1/"
   xmlns:cc="http://creativecommons.org/ns#"
   xmlns:rdf="http://www.w3.org/1999/02/22-rdf-syntax-ns#"
   xmlns:svg="http://www.w3.org/2000/svg"
   xmlns="http://www.w3.org/2000/svg"
   width="1280"
   height="640"
   version="1.1"
   id="svg156">
  <metadata
     id="metadata162">
    <rdf:RDF>
      <cc:Work
         rdf:about="">
        <dc:format>image/svg+xml</dc:format>
        <dc:type
           rdf:resource="http://purl.org/dc/dcmitype/StillImage" />
        <dc:title></dc:title>
      </cc:Work>
    </rdf:RDF>
  </metadata>
  <defs
     id="defs160">
    <marker
       orient="auto"
       refY="0"
       refX="0"
       id="Arrow1Mend"
       style="overflow:visible">
      <path
         id="path4681"
         d="M 0,0 5,-5 -12.5,0 5,5 Z"
         style="fill:#000000;fill-opacity:1;fill-rule:evenodd;stroke:#000000;stroke-width:1.00000003pt;stroke-opacity:1"
         transform="matrix(-0.4,0,0,-0.4,-4,0)" />
    </marker>
    <marker
       orient="auto"
       refY="0"
       refX="0"
       id="Arrow2Lend"
       style="overflow:visible">
      <path
         id="path4693"
         style="fill:#000000;fill-opacity:1;fill-rule:evenodd;stroke:#000000;stroke-width:0.625;stroke-linejoin:round;stroke-opacity:1"
         d="M 8.7185878,4.0337352 -2.2072895,0.01601326 8.7185884,-4.0017078 c -1.7454984,2.3720609 -1.7354408,5.6174519 -6e-7,8.035443 z"
         transform="matrix(-1.1,0,0,-1.1,-1.1,0)" />
    </marker>
    <marker
       orient="auto"
       refY="0"
       refX="0"
       id="marker4980"
       style="overflow:visible">
      <path
         id="path4978"
         d="M 0,0 5,-5 -12.5,0 5,5 Z"
         style="fill:#000000;fill-opacity:1;fill-rule:evenodd;stroke:#000000;stroke-width:1.00000003pt;stroke-opacity:1"
         transform="matrix(-0.8,0,0,-0.8,-10,0)" />
    </marker>
    <marker
       orient="auto"
       refY="0"
       refX="0"
       id="Arrow1Lend"
       style="overflow:visible">
      <path
         id="path4675"
         d="M 0,0 5,-5 -12.5,0 5,5 Z"
         style="fill:#000000;fill-opacity:1;fill-rule:evenodd;stroke:#000000;stroke-width:1.00000003pt;stroke-opacity:1"
         transform="matrix(-0.8,0,0,-0.8,-10,0)" />
    </marker>
    <defs
       id="defs132">
      <style
         id="style130">.cls-1{fill:#4285f4;}.cls-2{opacity:0.07;}.cls-3{fill:#fff;}</style>
    </defs>
  </defs>
  <!-- Created with Method Draw - http://github.com/duopixel/Method-Draw/ -->
  <g
     transform="translate(0,240)"
     style="display:none;overflow:visible"
     id="canvasGrid"
     width="100%"
     height="100%"
     x="0"
     y="0"
     overflow="visible"
     display="none">
    <rect
       style="fill:url(#gridpattern);stroke-width:0"
       id="rect123"
       width="100%"
       height="100%"
       x="0"
       y="0" />
  </g>
  <g
     id="svg_14"
     transform="matrix(2.3206377,0,0,2.3206377,-29.505293,-139.48629)">
    <g
       id="svg_8"
       transform="scale(1.0850694)">
      <path
         style="fill:#4285f4"
         class="cls-1"
         d="m 444.00935,176.58681 -26.3,-45.74 a 11.56,11.56 0 0 0 -9.86,-5.88 h -52.61 a 11.54,11.54 0 0 0 -9.87,5.88 l -26.3,45.62 a 11.44,11.44 0 0 0 0,11.43 l 26.3,46 a 11.78,11.78 0 0 0 9.86,6.09 h 52.61 a 11.74,11.74 0 0 0 9.87,-6.06 l 26.3,-45.75 a 11.7,11.7 0 0 0 0,-11.59 z"
         id="svg_10" />
    </g>
    <g
       id="svg_7"
       transform="scale(1.0850694)">
      <path
         style="opacity:0.07000002"
         class="cls-2"
         d="m 415.12935,182.46681 -36.91,-21.76 2.91,13.76 -13.83,-13.88 2.7,20.88 -11.75,29 29.53,29.5 h 20.06 a 11.74,11.74 0 0 0 9.87,-6.06 l 17.84,-31 z"
         id="svg_11" />
    </g>
    <g
       id="svg_6"
       transform="scale(1.0850694)">
      <polygon
         style="fill:#ffffff"
         class="cls-3"
         points="358.24936,210.43681 367.29935,204.3468 374.07935,182.46681 367.29935,160.58681 358.24936,154.49681 366.91936,182.46681 "
         id="svg_12" />
      <path
         style="fill:#ffffff"
         class="cls-3"
         d="m 373.58935,154.46681 8.67,28 v 0 l -8.67,28 41.54,-28 v 0 z m 11.62,24 -4.44,-14.31 21.26,14.31 z"
         id="svg_13" />
    </g>
  </g>
  <g
     id="svg_30"
     transform="matrix(2.3206377,0,0,2.3206377,-29.505327,-144.12755)">
    <g
       id="svg_21"
       transform="scale(1.0850694)">
      <path
         style="fill:#4285f4"
         d="m 212.68549,178.42501 -26.3,-45.74 a 11.56,11.56 0 0 0 -9.86,-5.88 h -52.61 a 11.55,11.55 0 0 0 -9.86,5.88 l -26.309998,45.62 a 11.48,11.48 0 0 0 0,11.44 l 26.299998,46 a 11.77,11.77 0 0 0 9.86,6.09 h 52.61 a 11.73,11.73 0 0 0 9.87,-6.06 l 26.3,-45.74 a 11.73,11.73 0 0 0 0,-11.61 z"
         id="svg_22" />
      <path
         style="opacity:0.07000002"
         d="m 187.48549,182.30501 -0.69,-0.21 -34.9,-34.91 -7.16,10.47 6,6 -15.27,5.56 -6,15.18 -5.86,-5.86 -10.51,9.28 54,54 h 9.42 a 11.73,11.73 0 0 0 9.87,-6.06 l 19.91,-34.65 z"
         id="svg_23" />
      <g
         id="svg_19">
        <g
           id="svg_24">
          <path
             style="fill:#ffffff"
             d="m 150.21549,161.30501 a 23,23 0 1 0 23,23 23,23 0 0 0 -23,-23 m 0,40.53 a 17.49,17.49 0 1 1 17.48,-17.53 17.48,17.48 0 0 1 -17.48,17.49"
             id="svg_25" />
          <path
             style="fill:#ffffff"
             d="m 186.35549,181.57501 -9.61,-3 a 27.15,27.15 0 0 1 0.62,5.73 27.57,27.57 0 0 1 -0.3,4.05 h 9.3 a 1.69,1.69 0 0 0 1.43,-1.57 v -3.63 a 1.69,1.69 0 0 0 -1.43,-1.57"
             id="svg_26" />
          <path
             style="fill:#ffffff"
             d="m 150.21549,157.15501 a 27.39,27.39 0 0 1 5.63,0.59 l -3.45,-9.57 a 1.69,1.69 0 0 0 -1.58,-1.43 h -1.44 a 1.68,1.68 0 0 0 -1.58,1.43 l -3,9.53 a 27.26,27.26 0 0 1 5.4,-0.54"
             id="svg_27" />
          <path
             style="fill:#ffffff"
             d="m 123.06549,184.30501 a 27.15,27.15 0 0 1 0.61,-5.75 l -9.61,3 a 1.69,1.69 0 0 0 -1.43,1.58 v 3.63 a 1.69,1.69 0 0 0 1.43,1.57 h 9.3 a 27.18,27.18 0 0 1 -0.3,-4.05"
             id="svg_28" />
          <path
             style="fill:#ffffff"
             d="m 158.44549,176.78501 -2.23,2.18 v 0 a 8.3,8.3 0 0 0 -11.69,11.74 l -2.18,2.18 a 11.384419,11.384419 0 1 0 16.1,-16.1 m -4.5,11.25 a 5.28,5.28 0 1 1 0,-7.46 5.24,5.24 0 0 1 0,7.46"
             id="svg_29" />
        </g>
      </g>
    </g>
  </g>
  <line
     style="fill:none;stroke:#000000;stroke-width:11.60318947;stroke-miterlimit:4;stroke-dasharray:none;marker-end:url(#Arrow1Mend)"
     x1="543.8609"
     y1="320"
     x2="713.26752"
     y2="320"
     id="svg_31"
     stroke-linejoin="undefined"
     stroke-linecap="undefined" />
</svg>
