<svg xmlns="http://www.w3.org/2000/svg" viewBox="0 0 512 512"><defs><style>.cls-1{fill:#4285f4;}.cls-2{opacity:0.07;}.cls-3{fill:#fff;}</style></defs><title>CloudRun_Hex 512px</title><g id="BASE"><path class="cls-1" d="M505.9,232.48l-105.22-183C392.24,34.91,377,26,361.22,26H150.79c-16.86,0-31.59,9.88-39.46,23.5L6.11,232.1a45.9,45.9,0,0,0,0,45.75l105.22,183.8C119.75,476.26,135,486,150.78,486H361.21c16.86,0,31.59-10.63,39.46-24.24l105.22-183A46.94,46.94,0,0,0,505.9,232.48Z"/></g><g id="shadow"><path class="cls-2" d="M390.38,256,242.72,169l11.62,54.82L199,168.48,209.84,252l-47,115.86L281,486h80.24c16.86,0,31.59-10.63,39.46-24.24L472,337.65Z"/></g><g id="art"><polygon class="cls-3" points="226.16 256 199.03 168.48 162.85 144.12 197.52 256 162.85 367.88 199.03 343.52 226.16 256"/><path class="cls-3" d="M224.2,144.12,258.88,256h0L224.2,367.88,390.38,256h0ZM270.67,240l-17.75-57.26L338,240Z"/></g></svg>